<svg id="图层_1" data-name="图层 1" xmlns="http://www.w3.org/2000/svg" viewbox="0 0 60 55.96">
  <title>banji</title>
  <path d="M33.73,53.64a2.11,2.11,0,0,1,0,4.21H10.62A10.53,10.53,0,0,1,0,47.3V12.49A10.6,10.6,0,0,1,10.62,1.9H49.34A10.6,10.6,0,0,1,60,12.49V29.9a2.11,2.11,0,0,1-4.22,0V12.49a6.35,6.35,0,0,0-6.37-6.37H10.62a6.35,6.35,0,0,0-6.36,6.37V47.26a6.37,6.37,0,0,0,6.36,6.38Zm0,0" transform="translate(0 -1.9)" />
  <path d="M45.57,45.51a8,8,0,1,1,0-15.95,8.18,8.18,0,0,1,8.36,8,8.19,8.19,0,0,1-8.36,7.95Zm0-11.89a4,4,0,1,0,4.3,3.94,4.1,4.1,0,0,0-4.3-3.94Zm0,0" transform="translate(0 -1.9)" />
  <path d="M57.86,57.81a2,2,0,0,1-2-2c0-5.24-4.54-9.5-10.09-9.5s-10.1,4.26-10.1,9.5a2,2,0,0,1-1,1.79,2,2,0,0,1-2,0,2,2,0,0,1-1-1.79c0-7.47,6.36-13.56,14.15-13.56s14.14,6.09,14.14,13.56a2,2,0,0,1-.58,1.44,2,2,0,0,1-1.44.59ZM42,12.66a2,2,0,0,1-2-2V4.22a2,2,0,1,1,4.05,0v6.41a2,2,0,0,1-2,2Zm-24.4,0a2,2,0,0,1-1.44-.59,2,2,0,0,1-.59-1.44V4.22a2,2,0,1,1,4,0v6.41a2,2,0,0,1-2,2ZM.2,19.06V14.84H59.84v4.22Zm21.41,7.39v10.3q.42,6.64-6,8.77a1.14,1.14,0,0,1-1.42-.61c-.12-.57.16-.93.81-1.14,3.28-.85,4.91-3.16,4.82-7V26.45c0-.45.29-.73.9-.77a.84.84,0,0,1,.85.77ZM10.26,26h5.35c.4,0,.64.32.69.85s-.29.77-.69.77h-2v5.93h1.58c.4,0,.64.32.69.85s-.29.77-.69.77H13.58V41a5.2,5.2,0,0,1,.89-.6,2.29,2.29,0,0,0,.69-.45.83.83,0,0,1,1.22.08.87.87,0,0,1-.16,1.22,16.77,16.77,0,0,1-6.17,2.84,1,1,0,0,1-1.13-.69c0-.41.2-.73.81-.93a7.79,7.79,0,0,0,2.11-.69V35.22H10.42c-.53,0-.81-.25-.81-.78a.78.78,0,0,1,.81-.85h1.42v-6H10.26c-.53,0-.81-.24-.81-.77a.79.79,0,0,1,.81-.85Zm12.93.16h6c.4,0,.64.33.69.85s-.29.78-.69.78H26.76V34.4H28.5c.49,0,.73.32.81.85s-.32.85-.81.85H26.76v7.23h2.63c.49,0,.73.28.81.85s-.32.89-.81.93H22.05a.82.82,0,0,1-.81-.93c0-.57.28-.85.81-.85h3V36.14H23.11c-.53,0-.81-.28-.81-.85a.78.78,0,0,1,.81-.85h1.94V27.79H23.19a.85.85,0,0,1-1-.78c0-.48.36-.77,1-.85ZM18.77,27c0,2.07-.16,4-.28,5.85a45,45,0,0,1-.69,4.91c-.25.57-.61.85-1.14.77s-.69-.49-.52-1.14a35.14,35.14,0,0,0,.6-4.46q.26-2.31.37-5.84c0-.45.28-.73.81-.78s.81.25.85.69Zm0,0" transform="translate(0 -1.9)" />
  <path d="M15.2,46a1.39,1.39,0,0,1-1.34-.89l0-.13a1.29,1.29,0,0,1,1.1-1.58c3.12-.81,4.58-3,4.54-6.57V26.45c0-.33.12-1.06,1.26-1.18h.08a1.3,1.3,0,0,1,1.25,1.14,1.47,1.47,0,0,1,1.14-.65h6.08c.36,0,.93.28,1.05,1.22v.07c-.12,1-.81,1.14-1.09,1.14h-2V34h1.42a1.28,1.28,0,0,1,1.14,1.22v.08c-.13,1.1-.9,1.22-1.18,1.22H27.28v6.41h2.23a1.14,1.14,0,0,1,1.18,1.22v.08a1.31,1.31,0,0,1-1.14,1.3H22.09A1.21,1.21,0,0,1,21,44.18a1.12,1.12,0,0,1,1.21-1.26h2.6V36.55H23.11A1.1,1.1,0,0,1,22,35.9v.86c.33,4.58-1.78,7.67-6.25,9.17a3.43,3.43,0,0,1-.56.08Zm-.61-1.22a.77.77,0,0,0,.94.37c4.09-1.38,6-4.1,5.67-8.36V26.49c0-.17-.08-.33-.48-.41s-.49.24-.49.37V36.88c.08,4-1.66,6.45-5.15,7.34-.49.12-.53.32-.49.57Zm7.46,0h7.34c.12,0,.37-.08.41-.53s-.25-.44-.37-.44h-3V35.74h2.15c.13,0,.33,0,.37-.45s-.2-.44-.41-.44H26.35V27.38h2.8c.12,0,.24,0,.28-.37s-.2-.44-.32-.44H23.19c-.41,0-.53.2-.57.44s.12.37.57.37h2.27v7.43H23.11c-.33,0-.41.16-.41.44s.16.45.41.45h2.35v8H22.05c-.24,0-.41.05-.41.45s.17.57.41.61Zm0-17.13v7.07A1.13,1.13,0,0,1,23.07,34h1.58V28.19H23.19A1.23,1.23,0,0,1,22,27.66ZM9.93,44.59a1.41,1.41,0,0,1-1.38-1v-.09c-.08-.4.08-1,1.06-1.38h.08a8.48,8.48,0,0,0,1.78-.53v-6h-1a1.12,1.12,0,0,1-1.22-1.18,1.17,1.17,0,0,1,1.14-1.26h1V28H10.26A1.12,1.12,0,0,1,9,26.85a1.17,1.17,0,0,1,1.13-1.26h5.48a1.23,1.23,0,0,1,1,1.22v0a1.15,1.15,0,0,1,1.14-.93h0a1.17,1.17,0,0,1,1.3,1v.08c-.05,2.07-.17,4-.29,5.88a34,34,0,0,1-.73,5l0,.08a1.45,1.45,0,0,1-1.58,1h0a1.21,1.21,0,0,1-.77-.49,1.51,1.51,0,0,1-.08-1.14c.16-.73.28-1.5.4-2.35a1,1,0,0,1-1,.61H13.9v4.66c.09,0,.17-.12.25-.16a5.28,5.28,0,0,0,.64-.36,1.24,1.24,0,0,1,1.79.08l0,.08a1.24,1.24,0,0,1-.24,1.74,16.93,16.93,0,0,1-6.33,2.93Zm-.61-1.22a.59.59,0,0,0,.69.36A16.2,16.2,0,0,0,16,41c.25-.2.29-.36.12-.6s-.44-.21-.64,0a3.84,3.84,0,0,1-.77.49,7,7,0,0,0-.77.53l-.69.69V34.81h2c.13,0,.25,0,.29-.37s-.2-.44-.33-.44H13.22V27.22h2.43c.12,0,.24,0,.28-.37s-.2-.44-.32-.44H10.3c-.32,0-.4.16-.4.44s0,.37.4.37h2V34H10.5c-.32,0-.41.17-.41.45s0,.37.41.37h1.82v7.3l-.2.12a7.76,7.76,0,0,1-2.23.73c-.53.16-.57.37-.57.45Zm7.42-5.2c.24,0,.49,0,.69-.48a39.55,39.55,0,0,0,.69-4.83c.12-1.83.2-3.77.24-5.8,0-.17-.08-.29-.44-.33s-.41.25-.41.37A54.76,54.76,0,0,1,17.15,33a36.19,36.19,0,0,1-.61,4.51.78.78,0,0,0,0,.52c0,.08.12.12.24.17Zm-2.71-5h1.21a1.18,1.18,0,0,1,1,1l.12-1.22q.24-2.31.36-5.84V27a1.06,1.06,0,0,1-1.09,1H14Zm0,0" transform="translate(0 -1.9)" />
</svg>
