<svg id="图层_1" data-name="图层 1" xmlns="http://www.w3.org/2000/svg" viewBox="0 0 174.46 158.89"><defs><style>.cls-1{fill:#ffd3d7;}.cls-2{fill:#fb560a;}.cls-3{fill:#dae9ff;}.cls-4{fill:#fff;}.cls-5{fill:#3889ff;}</style></defs><title>icon_04</title><path class="cls-1" d="M176.67,120.67l4,13.66a10.53,10.53,0,0,1-7,13L92.33,170.67a10.54,10.54,0,0,1-13-7L75.67,151c5-2,8-7.67,6.33-12.67A10.21,10.21,0,0,0,70,131l-4.33-15a10.52,10.52,0,0,1,7-13L154,79.67a10.52,10.52,0,0,1,13,7l4.33,15c-5,2-8,7.33-6.33,12.33a9.88,9.88,0,0,0,11.67,6.67Z" transform="translate(-18.44 -21.11)"/><path class="cls-2" d="M171.33,119l3.34,12a10,10,0,0,1-7,12.67L89.67,166a10.52,10.52,0,0,1-13-7l-3.34-12a9.94,9.94,0,0,0,6-12.33,10.32,10.32,0,0,0-11.66-7.34L63.33,113a10,10,0,0,1,7-12.67l78-22.33a10.52,10.52,0,0,1,13,7l4,14.33a10,10,0,0,0-6,12.34,11,11,0,0,0,12,7.33Z" transform="translate(-18.44 -21.11)"/><path class="cls-3" d="M97.67,154a2.53,2.53,0,0,1-2.34-1.67L94.67,150a2.42,2.42,0,1,1,4.66-1.33L100,151a2.38,2.38,0,0,1-1.67,3Zm-3.34-11A2.5,2.5,0,0,1,92,141.33L91.33,139A2.43,2.43,0,1,1,96,137.67l.67,2.33A2.39,2.39,0,0,1,95,143Zm-3-11.33A2.5,2.5,0,0,1,89,130l-.67-2.33A2.43,2.43,0,0,1,93,126.33l.67,2.34a2.4,2.4,0,0,1-1.67,3ZM88,120.33a2.49,2.49,0,0,1-2.33-1.66L85,116.33A2.43,2.43,0,1,1,89.67,115l.66,2.33a2.37,2.37,0,0,1-1.66,3Zm-3-11a2.49,2.49,0,0,1-2.33-1.66L82,105.33A2.43,2.43,0,1,1,86.67,104l.66,2.33a2.37,2.37,0,0,1-1.66,3C85.33,109,85.33,109.33,85,109.33Z" transform="translate(-18.44 -21.11)"/><path class="cls-4" d="M96.33,154.33A2.49,2.49,0,0,1,94,152.67l-.67-2.34A2.43,2.43,0,1,1,98,149l.67,2.33a2.39,2.39,0,0,1-1.67,3Zm-3-11A2.49,2.49,0,0,1,91,141.67l-.67-2.34A2.43,2.43,0,1,1,95,138l.67,2.33a2.39,2.39,0,0,1-1.67,3A.47.47,0,0,0,93.33,143.33ZM90,132a2.5,2.5,0,0,1-2.33-1.67L87,128a2.43,2.43,0,1,1,4.67-1.33l.66,2.33a2.38,2.38,0,0,1-1.66,3Zm-3.33-11.33A2.53,2.53,0,0,1,84.33,119L84,116.67a2.43,2.43,0,0,1,4.67-1.34l.66,2.34a2.38,2.38,0,0,1-1.66,3Zm-3-11A2.53,2.53,0,0,1,81.33,108l-.66-2.33a2.42,2.42,0,0,1,4.66-1.34l.67,2.34a2.39,2.39,0,0,1-1.67,3Z" transform="translate(-18.44 -21.11)"/><path class="cls-3" d="M99.67,113.33a11.06,11.06,0,0,1,7-6.33s11.66-3.67,19-5.67l2.33-.66a6.79,6.79,0,0,1,7,4.66l-.33-.66c.66,3-1,6.33-4,7L108,118.33a6.22,6.22,0,0,1-7.67-3.66l-.66-1.34Zm5.66,17c1-2.66,4-5.66,6.67-6.33l36.33-10.33c2.67-.67,6,.66,7,3.33l.34.67c1.33,3,0,6-3,6.66l-38,11-.67.34c-3,1-6.67-.67-8.33-3.34l-.67-1,.33-1Z" transform="translate(-18.44 -21.11)"/><path class="cls-4" d="M103,107.67l22.33-6.34A4.54,4.54,0,1,1,128,110l-22.33,6.33a4.63,4.63,0,0,1-5.67-3,4.06,4.06,0,0,1,3-5.66Zm5,17.66L148,114a4.54,4.54,0,1,1,2.67,8.67l-40,11.33a4.64,4.64,0,0,1-5.67-3A4.26,4.26,0,0,1,108,125.33Z" transform="translate(-18.44 -21.11)"/><path class="cls-3" d="M182.33,77.33l9,18.67a15,15,0,0,1-6.66,20l-110,53.33a14.79,14.79,0,0,1-20-7L46.33,145A15,15,0,0,0,52,125.33a15.33,15.33,0,0,0-19-7.66L23,97.33a15,15,0,0,1,6.67-20L139.67,24a14.8,14.8,0,0,1,20,7l10,20.33c-6.67,4-9.34,12.34-6,19,3,6.67,11.33,9.67,18.66,7Z" transform="translate(-18.44 -21.11)"/><path class="cls-5" d="M174.33,76l8,16.67a14.8,14.8,0,0,1-7,20L70.67,164a14.79,14.79,0,0,1-20-7l-8-16.67A15.15,15.15,0,0,0,48,121c-3.33-7-11.33-10-18.67-7.67L20,94a14.8,14.8,0,0,1,7-20L131.67,22.67a14.8,14.8,0,0,1,20,7l9.66,19.66A15.16,15.16,0,0,0,156,68.67,14.84,14.84,0,0,0,174.33,76Z" transform="translate(-18.44 -21.11)"/><path class="cls-3" d="M77.67,143.33a3.18,3.18,0,0,1-3-2l-1.34-2.66a3.28,3.28,0,1,1,6-2.67l1.34,3A3.3,3.3,0,0,1,79,143.33Zm-7.34-15a3.2,3.2,0,0,1-3-2l-1.33-3a3.28,3.28,0,0,1,6-2.66l1.33,3A3.31,3.31,0,0,1,71.67,128C71.33,128.33,71,128.33,70.33,128.33Zm-7-15a3.2,3.2,0,0,1-3-2l-1.33-3a3.28,3.28,0,0,1,6-2.66l1.33,3A3.31,3.31,0,0,1,64.67,113,2,2,0,0,1,63.33,113.33ZM56,98.33a3.2,3.2,0,0,1-3-2l-1.33-3a3.28,3.28,0,1,1,6-2.66l1.33,3A3.3,3.3,0,0,1,57.33,98C57,98.33,56.67,98.33,56,98.33Zm-7.33-15a3.18,3.18,0,0,1-3-2l-1.34-3a3.28,3.28,0,0,1,6-2.66l1.34,3A3.31,3.31,0,0,1,50,83C49.67,83.33,49.33,83.33,48.67,83.33Z" transform="translate(-18.44 -21.11)"/><path class="cls-4" d="M76,144a3.21,3.21,0,0,1-3-2l-1.33-3a3.28,3.28,0,0,1,6-2.67l1.33,3a3.31,3.31,0,0,1-1.67,4.34C77,144,76.67,144,76,144Zm-7.33-15a3.2,3.2,0,0,1-3-2l-1.34-3a3.28,3.28,0,0,1,6-2.67l1.34,3A3.32,3.32,0,0,1,70,128.67C69.67,129,69.33,129,68.67,129Zm-7.34-14.67a3.2,3.2,0,0,1-3-2l-1.33-3a3.28,3.28,0,0,1,6-2.66l1.33,3A3.31,3.31,0,0,1,62.67,114C62.33,114,62,114.33,61.33,114.33Zm-7-15a3.2,3.2,0,0,1-3-2l-1.33-3a3.28,3.28,0,0,1,6-2.66l1.33,3A3.31,3.31,0,0,1,55.67,99C55.33,99,54.67,99.33,54.33,99.33ZM47,84.33a3.2,3.2,0,0,1-3-2l-1.33-3a3.28,3.28,0,1,1,6-2.66l1.33,3A3.3,3.3,0,0,1,48.33,84C48,84,47.33,84.33,47,84.33Z" transform="translate(-18.44 -21.11)"/><path class="cls-3" d="M71.33,85.67c.67-4,4.34-9,8.34-11,0,0,15.66-8.34,25.33-13s3-1.34,3-1.34a9.5,9.5,0,0,1,11.33,5l-.33-1a8.69,8.69,0,0,1-4,11.34l-30.33,15c-4,2-9.67.66-12-3.34l-1.34-1.66Zm12.34,23c.66-4,4.33-8.67,8-10.67l49-23.67c3.66-1.66,8.66-.66,11,3l.66,1C155,82,153.67,86.67,149.67,89L98,113.33l-.67.34c-4,2-10,.66-13-2.67l-1-1Z" transform="translate(-18.44 -21.11)"/><path class="cls-4" d="M74.33,76.67l30-14.67a6.71,6.71,0,0,1,6,12l-30,14.67a6.69,6.69,0,0,1-9-3A7,7,0,0,1,74.33,76.67Zm12,24L140,74.33a6.71,6.71,0,0,1,6,12L92.33,112.67a6.71,6.71,0,0,1-6-12Z" transform="translate(-18.44 -21.11)"/><path class="cls-3" d="M40,173.33C40,177,69.83,180,106.65,180s66.67-3,66.68-6.66h0c0-3.68-29.84-6.66-66.66-6.66S40,169.65,40,173.33Z" transform="translate(-18.44 -21.11)"/></svg>