<svg id="图层_1" data-name="图层 1" xmlns="http://www.w3.org/2000/svg" viewBox="0 0 851.34 896"><defs><style>.cls-1{fill-rule:evenodd;}</style></defs><title>缴费人</title><path d="M927.79,681.45,873.23,736h30.7a33.6,33.6,0,0,1,0,67.2h-78.4v22.4h78.4a33.6,33.6,0,1,1,0,67.2h-78.4v33.6a33.6,33.6,0,0,1-67.2,0V892.8H657.53a33.6,33.6,0,0,1,0-67.2h100.8V803.2H657.53a33.6,33.6,0,0,1,0-67.2h42.08l-54.07-54.08a33.59,33.59,0,0,1,47.51-47.51l93.19,93.18,93.85-93.85a33.73,33.73,0,1,1,47.7,47.71ZM511.93,601.6C314,601.6,153.53,762.06,153.53,960H86.33c0-184.58,117.73-341.26,282-400.23-75.16-47.66-125.21-131.38-125.21-227C243.13,184.34,363.48,64,511.93,64s268.8,120.34,268.8,268.8S660.39,601.6,511.93,601.6Zm0-470.4c-111.34,0-201.6,90.26-201.6,201.6s90.26,201.6,201.6,201.6,201.6-90.26,201.6-201.6S623.27,131.2,511.93,131.2Z" transform="translate(-86.33 -64)"/></svg>
