<svg id="图层_1" data-name="图层 1" xmlns="http://www.w3.org/2000/svg" viewBox="0 0 81.29 123.05"><defs><style>.cls-1{fill:#36c;}.cls-2{fill:#f4a914;}</style></defs><title>icon_07</title><path class="cls-1" d="M100,142.4l-2.93-3c-3.87-3.92-37.71-39.06-37.71-60.29a40.64,40.64,0,1,1,81.28,0c0,21.25-33.84,56.37-37.71,60.29l-2.93,3Zm0-95.72A32.47,32.47,0,0,0,67.56,79.12c0,13.85,21.25,39.47,32.44,51.49,11.19-12,32.44-37.66,32.44-51.49A32.47,32.47,0,0,0,100,46.68Z" transform="translate(-59.36 -38.48)"/><path class="cls-2" d="M100,98.89a19.77,19.77,0,1,1,19.77-19.77A19.79,19.79,0,0,1,100,98.89Zm0-31.33a11.56,11.56,0,1,0,11.56,11.56A11.58,11.58,0,0,0,100,67.56Z" transform="translate(-59.36 -38.48)"/><path class="cls-1" d="M79.49,153.32h41v8.2h-41Z" transform="translate(-59.36 -38.48)"/></svg>