<svg id="图层_1" data-name="图层 1" xmlns="http://www.w3.org/2000/svg" viewBox="0 0 761.6 896"><defs><style>.cls-1{fill-rule:evenodd;}</style></defs><title>手机号</title><path d="M825.6,64H198.4a67.2,67.2,0,0,0-67.2,67.2V892.8A67.2,67.2,0,0,0,198.4,960H825.6a67.2,67.2,0,0,0,67.2-67.2V131.2A67.2,67.2,0,0,0,825.6,64Zm0,784a44.8,44.8,0,0,1-44.8,44.8H243.2A44.8,44.8,0,0,1,198.4,848V736H825.6Zm0-179.2H198.4V176a44.8,44.8,0,0,1,44.8-44.8H780.8A44.8,44.8,0,0,1,825.6,176ZM478.4,848h67.2a33.6,33.6,0,0,0,0-67.2H478.4a33.6,33.6,0,1,0,0,67.2Z" transform="translate(-131.2 -64)"/></svg>
