    <svg id="图层_1" data-name="图层 1" xmlns="http://www.w3.org/2000/svg" viewbox="0 0 20 18.39">
      <title>weixinzhifu</title>
      <path d="M7.62,12.39C6.43,13.05,6.25,12,6.25,12L4.75,8.52c-.58-1.65.5-.74.5-.74s.92.69,1.62,1.12A1.89,1.89,0,0,0,8.37,9l9.81-4.51A10.49,10.49,0,0,0,10,.8C4.48.8,0,4.71,0,9.52a8.33,8.33,0,0,0,3.79,6.83l-.42,2.39s-.2.69.51.37c.47-.22,1.7-1,2.42-1.49a11.22,11.22,0,0,0,3.7.62c5.52,0,10-3.9,10-8.72A7.78,7.78,0,0,0,19,5.64C15.83,7.51,8.56,11.87,7.62,12.39Zm0,0" transform="translate(0 -0.8)" />
    </svg>
