<svg id="图层_1" data-name="图层 1" xmlns="http://www.w3.org/2000/svg" viewBox="0 0 839.5 895.47"><defs><style>.cls-1{fill:#020202;fill-rule:evenodd;}</style></defs><title>学生姓名</title><path d="M512,601.55c-195.22,0-353.47,160.36-353.47,358.18H92.25c0-184.28,115.67-341.15,277.44-400.22A269.25,269.25,0,0,1,246.89,332.9c0-148.36,118.7-268.63,265.11-268.63S777.11,184.54,777.11,332.9a269.23,269.23,0,0,1-122.8,226.61c161.77,59.07,277.44,215.94,277.44,400.22H865.47C865.47,761.91,707.22,601.55,512,601.55ZM710.83,332.9c0-111.27-89-201.47-198.83-201.47S313.17,221.63,313.17,332.9s89,201.49,198.83,201.49S710.83,444.18,710.83,332.9Z" transform="translate(-92.25 -64.27)"/></svg>
