    <svg id="图层_1" data-name="图层 1" xmlns="http://www.w3.org/2000/svg" viewbox="0 0 20 20">
      <title>zhifubao</title>
      <path d="M20,13.69V3.85A3.85,3.85,0,0,0,16.15,0H3.85A3.85,3.85,0,0,0,0,3.85v12.3A3.85,3.85,0,0,0,3.85,20h12.3a3.85,3.85,0,0,0,3.79-3.17c-1-.44-5.44-2.35-7.74-3.45-1.76,2.13-3.59,3.4-6.36,3.4S1.23,15.08,1.45,13c.15-1.37,1.09-3.6,5.16-3.22A18.26,18.26,0,0,1,11.5,11a14.36,14.36,0,0,0,1.12-2.72H4.84V7.46H8.69V6.08H4V5.23H8.69v-2a.38.38,0,0,1,.39-.32H11V5.23h5v.85H11V7.46h4.08a15.87,15.87,0,0,1-1.66,4.15C14.61,12,20,13.69,20,13.69ZM5.54,15.46c-2.92,0-3.39-1.84-3.23-2.62a2.5,2.5,0,0,1,2.62-1.76,12.16,12.16,0,0,1,5.55,1.45c-1.41,1.84-3.14,2.93-4.94,2.93Zm0,0" transform="translate(0 0)" />
    </svg>
