<svg id="图层_1" data-name="图层 1" xmlns="http://www.w3.org/2000/svg" viewBox="0 0 174.85 174.85"><title>icon_02</title><path d="M93.9,12.57H31.33A18.74,18.74,0,0,0,12.57,31.29V168.71a18.76,18.76,0,0,0,18.72,18.72H168.71a18.79,18.79,0,0,0,18.72-18.77V112.45H174.94v56.21a6.29,6.29,0,0,1-6.23,6.28H31.29a6.27,6.27,0,0,1-6.23-6.23V31.29a6.25,6.25,0,0,1,6.27-6.23H93.9Z" transform="translate(-12.57 -12.57)"/><path d="M170,44.31a38.82,38.82,0,0,0-6.52,1.58c-8,2.62-17.42,7.93-28,16.63q-3.69,3-6.91,6.2A82.47,82.47,0,0,0,109.64,96.3a59,59,0,0,0-2.87,8.84,27.33,27.33,0,0,0-.56,2.93l-12.42-1.29a59.6,59.6,0,0,1,4.28-15.2,95,95,0,0,1,21.67-31.75q3.65-3.6,7.76-7c13.35-10.93,24.89-17.07,34.4-19.71L134,24.84l2.79-11.72L184.06,27.2l2.19.65L174.3,78l-11.54-3.44Z" transform="translate(-12.57 -12.57)"/></svg>